HIERARCHY
ROOT Hips
{
	OFFSET 0.00000 0.00000 0.00000
	CHANNELS 6 Xposition Yposition Zposition Zrotation Yrotation Xrotation 
	JOINT LHipJoint
	{
		OFFSET 0 0 0
		CHANNELS 3 Zrotation Yrotation Xrotation
		JOINT LeftHip
		{
			OFFSET 1.76014 -1.80163 0.38499
			CHANNELS 3 Zrotation Yrotation Xrotation
			JOINT LeftKnee
			{
				OFFSET 2.46817 -6.78126 0.00000
				CHANNELS 3 Zrotation Yrotation Xrotation
				JOINT LeftAnkle
				{
					OFFSET 2.79348 -7.67503 0.00000
					CHANNELS 3 Zrotation Yrotation Xrotation
					JOINT LeftToe
					{
						OFFSET 0.09421 -0.25885 1.91403
						CHANNELS 3 Zrotation Yrotation Xrotation
						End Site
						{
							OFFSET 0.00000 -0.00000 0.97975
						}
					}
				}
			}
		}
	}
	JOINT RHipJoint
	{
		OFFSET 0 0 0
		CHANNELS 3 Zrotation Yrotation Xrotation
		JOINT RightHip
		{
			OFFSET -1.77926 -1.80163 0.38499
			CHANNELS 3 Zrotation Yrotation Xrotation
			JOINT RightKnee
			{
				OFFSET -2.51996 -6.92353 0.00000
				CHANNELS 3 Zrotation Yrotation Xrotation
				JOINT RightAnkle
				{
					OFFSET -2.76109 -7.58603 0.00000
					CHANNELS 3 Zrotation Yrotation Xrotation
					JOINT RightToe
					{
						OFFSET -0.08067 -0.22163 1.86812
						CHANNELS 3 Zrotation Yrotation Xrotation
						End Site
						{
							OFFSET -0.00000 -0.00000 0.95558
						}
					}
				}
			}
		}
	}
	JOINT lowerback
	{
		OFFSET 0 0 0
		CHANNELS 3 Zrotation Yrotation Xrotation
		JOINT Chest
		{
			OFFSET 0.05537 1.92033 -0.03713
			CHANNELS 3 Zrotation Yrotation Xrotation
			JOINT Chest2
			{
				OFFSET 0.04452 1.90073 0.10860
				CHANNELS 3 Zrotation Yrotation Xrotation
				JOINT lowerneck
				{
					OFFSET 0 0 0
					CHANNELS 3 Zrotation Yrotation Xrotation
					JOINT Neck
					{
						OFFSET 0.00903 1.74649 0.02074
						CHANNELS 3 Zrotation Yrotation Xrotation
						JOINT Head
						{
							OFFSET -0.08608 1.67844 -0.12081
							CHANNELS 3 Zrotation Yrotation Xrotation
							End Site
							{
								OFFSET -0.03521 1.83380 -0.05059
							}
						}
					}
				}
				JOINT LeftCollar
				{
					OFFSET 0 0 0
					CHANNELS 3 Zrotation Yrotation Xrotation
					JOINT LeftShoulder
					{
						OFFSET 3.28197 0.84325 -0.19106
CHANNELS 3 Zrotation Xrotation Yrotation
						JOINT LeftElbow
						{
OFFSET 0 -5.243180 -0.000000
CHANNELS 3 Zrotation Xrotation Yrotation
							JOINT LeftWrist
							{
OFFSET 0 -2.989990 0.000000
CHANNELS 3 Zrotation Xrotation Yrotation
								JOINT lhand
								{
									OFFSET 0 0 0
CHANNELS 3 Zrotation Xrotation Yrotation
									JOINT LFingers
									{
OFFSET 0 -0.726740 0.000000
CHANNELS 3 Zrotation Xrotation Yrotation
										End Site
										{
OFFSET 0 -0.585920 0.000000
										}
									}
								}
								JOINT LThumb
								{
OFFSET 0 0.000000 0.000000
CHANNELS 3 Zrotation Xrotation Yrotation
									End Site
									{
OFFSET 0 -0.594870 0.594870
									}
								}
							}
						}
					}
				}
				JOINT RightCollar
				{
					OFFSET 0 0 0
					CHANNELS 3 Zrotation Yrotation Xrotation
					JOINT RightShoulder
					{
						OFFSET -3.30963 0.78377 0.14264
CHANNELS 3 Zrotation Xrotation Yrotation
						JOINT RightElbow
						{
OFFSET 0 -5.370450 0.000000
CHANNELS 3 Zrotation Xrotation Yrotation
							JOINT RightWrist
							{
OFFSET 0 -2.927920 0.000000
CHANNELS 3 Zrotation Xrotation Yrotation
								JOINT rhand
								{
									OFFSET 0 0 0
CHANNELS 3 Zrotation Xrotation Yrotation
									JOINT RFingers
									{
OFFSET 0 -0.784500 0.000000
CHANNELS 3 Zrotation Xrotation Yrotation
										End Site
										{
OFFSET 0 -0.632480 0.000000
										}
									}
								}
								JOINT RThumb
								{
OFFSET 0 0.000000 0.000000
CHANNELS 3 Zrotation Xrotation Yrotation
									End Site
									{
OFFSET 0 -0.642140 0.642140
									}
								}
							}
						}
					}
				}
			}
		}
	}
}
MOTION
Frames: 7
Frame Time: 0.008333333333333333
0.561700 17.481900 -0.580800 -1.678500 -14.883300 16.652300 0.000000 0.000000 0.000000 -17.458800 -1.623600 -39.415200 4.939000 13.314800 40.558600 0.247100 8.384600 -15.907300 0.759600 -5.566000 -15.530200 0.000000 0.000000 0.000000 15.518500 12.629400 -38.449500 -3.914400 -12.045600 35.893600 -0.110200 3.645500 -6.049600 -0.463700 4.367700 -12.113600 1.592400 -0.374900 15.998100 2.575200 -0.249500 7.010000 1.843300 -0.160800 -1.518000 15.459300 -19.259300 -43.235300 -87.366400 -75.097900 82.044000 1.334800 -69.691500 -113.526000 0.000000 0.000000 0.000000 18.881100 -29.267700 -50.835700 119.996600 -56.310800 85.656000 21.771600 -21.020200 -26.501000 0.000000 0.000000 0.000000 -7.125000 0.000000 0.000000 -9.260500 57.971100 2.956200 0.000000 0.000000 0.000000 -7.368100 -44.621000 71.169000 -127.140800 -54.085500 -91.526000 -10.379900 5.752900 -5.663300 0.000000 0.000000 0.000000 7.125000 0.000000 -0.000000 12.087100 24.228900 6.195000
0.792076 17.409723 -0.706855 -2.703710 -19.252713 16.771952 0.000000 0.000000 0.000000 -17.456271 -0.180687 -40.864227 5.453301 13.876780 42.746234 0.239427 9.994008 -17.600495 0.597392 -4.947859 -13.759843 0.000000 0.000000 0.000000 15.625534 14.150321 -39.339386 -3.951446 -12.095561 36.070818 -0.003641 5.463656 -3.937001 -0.289062 3.457474 -9.555167 1.259466 -1.178549 16.907973 2.651369 -1.419167 8.817949 2.308778 -0.779412 -0.032669 13.160410 -18.089555 -40.495241 -91.654718 -74.727764 87.831135 -3.782413 -73.575899 -109.738896 0.000000 0.000000 0.000000 8.532521 -37.026589 -48.918266 127.421193 -53.984034 91.752898 22.969911 -16.424516 -27.955066 0.000000 0.000000 0.000000 -7.125000 0.000000 0.000000 -8.687297 59.729303 3.138049 0.000000 0.000000 0.000000 0.106679 -47.074298 73.577667 -128.787781 -53.472874 -92.854732 -17.649483 0.052542 -3.332628 0.000000 0.000000 0.000000 7.125000 0.000000 0.000000 6.813839 26.470888 3.082643
1.029833 17.334477 -0.800370 -2.953869 -24.046492 16.875667 0.000000 0.000000 0.000000 -18.539262 1.592931 -42.294856 5.842366 14.273770 44.345640 0.233003 11.386955 -19.151483 0.459591 -4.348696 -12.059682 0.000000 0.000000 0.000000 14.635260 16.193221 -40.308233 -3.972648 -12.123862 36.171698 0.100726 6.985232 -1.875160 -0.098302 2.021264 -5.564364 1.108888 -1.735158 17.763355 2.633573 -2.251435 10.357868 2.514012 -1.238861 1.218459 12.185111 -16.332519 -39.194259 -92.304387 -74.673284 88.404551 -1.614112 -73.580686 -112.036755 0.000000 0.000000 0.000000 9.244596 -42.196035 -50.031484 130.267754 -52.886914 94.039516 27.522959 -9.845022 -27.926729 0.000000 0.000000 0.000000 -7.125000 0.000000 0.000000 -3.456862 60.814396 1.333061 0.000000 0.000000 0.000000 5.941092 -49.458554 76.592104 -129.857481 -53.052808 -93.711983 -16.812994 -0.902699 -1.052284 0.000000 0.000000 0.000000 7.125000 0.000000 0.000000 7.591339 28.845363 3.011093
1.279143 17.196807 -0.941797 -2.612859 -28.007536 16.857132 0.000000 0.000000 0.000000 -20.246487 3.527722 -44.890747 6.436696 14.838598 46.710088 0.280924 12.004306 -20.405877 0.358750 -3.848095 -10.649740 0.000000 0.000000 0.000000 12.622406 18.582702 -42.422132 -4.314146 -12.567138 37.768879 0.188412 8.357553 -0.482807 -0.039176 1.277529 -3.512717 1.392186 -1.976987 18.720327 2.616061 -2.599482 11.523962 2.407220 -1.435747 2.004850 11.702244 -14.756137 -38.176783 -89.491176 -74.718863 84.713802 2.038545 -72.178403 -115.451928 0.000000 0.000000 0.000000 13.917609 -49.928379 -43.032202 127.588072 -53.923159 91.887890 30.280062 -7.432399 -27.393625 0.000000 0.000000 0.000000 -7.125000 0.000000 0.000000 0.042655 60.946847 -0.016644 0.000000 0.000000 0.000000 12.874924 -54.865088 80.697415 -127.417526 -53.985462 -91.749958 -13.017934 -6.585323 5.804640 0.000000 0.000000 0.000000 7.125000 0.000000 0.000000 11.423494 35.737532 2.643338
1.470939 16.937884 -1.133254 -2.825971 -29.270435 16.219669 0.000000 0.000000 0.000000 -20.986636 6.469636 -48.719312 7.640821 15.848659 51.258522 0.608591 9.645395 -21.245880 0.311984 -3.590619 -9.927755 0.000000 0.000000 0.000000 11.853746 19.504069 -45.228422 -5.238248 -13.647218 41.842164 0.239797 9.415484 -0.532836 -0.031132 1.138307 -3.129432 2.051197 -2.554002 21.438424 2.489912 -3.238699 12.631051 2.114531 -1.750051 1.858415 11.738847 -13.483074 -37.364170 -86.276546 -74.989463 80.878854 6.070217 -70.521568 -119.731703 0.000000 0.000000 0.000000 28.030848 -60.892943 -21.736222 123.239362 -55.383107 88.339887 33.952407 -10.762205 -29.323170 0.000000 0.000000 0.000000 -7.125000 0.000000 0.000000 4.019255 64.041098 -1.855994 0.000000 0.000000 0.000000 7.442273 -54.670711 75.025881 -138.812608 -48.757366 -100.672451 -11.534856 -12.758559 8.334940 0.000000 0.000000 0.000000 7.125000 0.000000 0.000000 13.125945 38.172606 2.253135
1.672589 16.646938 -1.348216 -1.360462 -30.648044 14.068821 0.000000 0.000000 0.000000 -22.804741 7.855946 -50.991599 8.803118 16.679316 55.406641 0.804459 8.920918 -22.426976 0.259487 -3.277196 -9.051422 0.000000 0.000000 0.000000 9.997466 18.971809 -48.209092 -6.461041 -14.860751 46.805283 0.363053 11.437934 -0.364693 -0.008158 0.577218 -1.586054 1.741909 -2.932376 25.587294 1.456535 -3.808291 14.671997 1.450514 -2.060666 2.136657 12.246830 -12.808010 -39.091502 -83.490834 -75.234599 77.390301 7.571383 -69.179804 -120.429192 0.000000 0.000000 0.000000 56.865073 -66.308252 9.781336 121.626098 -55.860857 87.008355 37.176936 -11.738722 -32.675072 0.000000 0.000000 0.000000 -7.125000 0.000000 0.000000 7.544326 68.674587 -4.293367 0.000000 0.000000 0.000000 0.034608 -50.052255 68.166917 -152.402591 -38.742636 -110.129242 -12.413614 -12.706480 10.025066 0.000000 0.000000 0.000000 7.125000 0.000000 0.000000 12.744718 39.918812 1.626748
1.909575 16.297554 -1.558523 -2.176580 -32.710913 14.579863 0.000000 0.000000 0.000000 -22.396046 8.189079 -55.322268 10.416292 17.637328 60.870802 1.045868 8.920988 -24.482585 0.106063 -2.099446 -5.780629 0.000000 0.000000 0.000000 9.118276 20.839120 -52.107185 -7.502030 -15.740419 50.748281 0.419243 12.245470 -0.310551 -0.030133 1.118440 -3.074732 2.761136 -2.845454 29.737596 1.304976 -3.501917 16.197774 0.792757 -1.893944 1.982759 12.266751 -12.161094 -40.793355 -80.541740 -75.519968 74.017272 8.492291 -68.785234 -120.974451 0.000000 0.000000 0.000000 71.485751 -65.859223 26.779325 123.109915 -55.422608 88.233339 37.474759 -13.545751 -34.554379 0.000000 0.000000 0.000000 -7.125000 0.000000 0.000000 7.300927 70.809069 -4.503342 0.000000 0.000000 0.000000 -1.527261 -51.247661 68.854717 -155.829478 -35.344023 -112.195050 -13.385683 -11.613133 9.987014 0.000000 0.000000 0.000000 7.125000 0.000000 0.000000 11.904094 39.960356 1.503439
